<svg id="Livello_1" data-name="Livello 1" xmlns="http://www.w3.org/2000/svg" viewBox="0 0 400 400"><defs><style>.cls-1{fill:#111547;}.cls-2{fill:#64d7a4;}</style></defs><rect class="cls-1" x="-25.15" y="-25.15" width="450.3" height="450.3"/><path class="cls-2" d="M223.2,117.51v11.8a3.24,3.24,0,0,1-3.25,3.25h-3.62c-10.79,0-11.4.56-11.4,9.95V155a5.6,5.6,0,0,1-5.57,5.62H158.54a39.41,39.41,0,0,0-39.29,42.06c1.41,20.87,19.75,36.68,40.7,36.68h8.26a5.61,5.61,0,0,1,5.62,5.62v16.81a5.65,5.65,0,0,1-5.62,5.66h-7.86c-37.77,0-69.87-30.9-69.27-68.62a67.56,67.56,0,0,1,67.46-66.3h35c10.83,0,11.39-.6,11.39-10v-5a3.23,3.23,0,0,1,3.26-3.21H220A3.23,3.23,0,0,1,223.2,117.51Z"/><path class="cls-2" d="M308.92,201.14a67.53,67.53,0,0,1-67.46,66.34h-35c-10.8,0-11.4.56-11.4,10v5.05a3.21,3.21,0,0,1-3.21,3.21h-11.8a3.22,3.22,0,0,1-3.21-3.21v-11.8a3.2,3.2,0,0,1,3.21-3.21h3.62c10.79,0,11.39-.6,11.39-10V245a5.6,5.6,0,0,1,5.62-5.58h40.78a39.43,39.43,0,0,0,39.29-42.06c-1.41-20.91-19.71-36.68-40.66-36.68h-8.27a5.65,5.65,0,0,1-5.66-5.66V138.18a5.62,5.62,0,0,1,5.66-5.62h7.87C277.41,132.56,309.56,163.42,308.92,201.14Z"/></svg>