<svg id="Livello_1" data-name="Livello 1" xmlns="http://www.w3.org/2000/svg" viewBox="0 0 263.36 40.01"><defs><style>.cls-1{fill:#111547;}.cls-2{fill:#64d7a4;}</style></defs><path class="cls-1" d="M71.12,12.3a5.94,5.94,0,0,1,2.68.53,9.45,9.45,0,0,1,1.67,1v3.41a7.79,7.79,0,0,0-1.71-.93A6.09,6.09,0,0,0,71.44,16a4,4,0,0,0-2,.55A4.2,4.2,0,0,0,67.89,18a4.08,4.08,0,0,0-.56,2.13,4,4,0,0,0,1.17,3,4,4,0,0,0,2.94,1.16,6.54,6.54,0,0,0,2.32-.36A7.37,7.37,0,0,0,75.47,23v3.38a7.2,7.2,0,0,1-1.67,1,6.43,6.43,0,0,1-2.68.48,7.47,7.47,0,0,1-4-1.06A7.91,7.91,0,0,1,64.4,24a7.61,7.61,0,0,1-1-3.83A7.75,7.75,0,0,1,64,17.17a8,8,0,0,1,1.61-2.49A7.81,7.81,0,0,1,68.05,13,7.32,7.32,0,0,1,71.12,12.3Z"/><path class="cls-1" d="M86.54,16.82a3.94,3.94,0,0,0-2-.52,2.87,2.87,0,0,0-2.12.83A8.08,8.08,0,0,0,81,19.18V27.4h-3.7V12.68H81v2.77a8.07,8.07,0,0,1,1.79-2.18,3.51,3.51,0,0,1,2.35-.88,3.68,3.68,0,0,1,1.43.27Z"/><path class="cls-1" d="M94.34,12.3a7.14,7.14,0,0,1,3.72.94,6.14,6.14,0,0,1,2.39,2.58,8.34,8.34,0,0,1,.83,3.8v1.57H90.61a3.85,3.85,0,0,0,1.46,2.39,4.49,4.49,0,0,0,2.86.91,6.61,6.61,0,0,0,2.91-.64,10.21,10.21,0,0,0,2.1-1.31l0,3.44a8.74,8.74,0,0,1-2.08,1.23,7.3,7.3,0,0,1-3,.63,8.1,8.1,0,0,1-4-1A7.57,7.57,0,0,1,88,24.14a7.34,7.34,0,0,1-1.07-3.94,8.14,8.14,0,0,1,1-3.93A7.72,7.72,0,0,1,90.5,13.4,6.9,6.9,0,0,1,94.34,12.3Zm-.08,3.24a3.3,3.3,0,0,0-2.31.85,4.35,4.35,0,0,0-1.28,2.27h7a3,3,0,0,0-1.16-2.35A3.83,3.83,0,0,0,94.26,15.54Z"/><path class="cls-1" d="M107.92,12.3a7.73,7.73,0,0,1,2.54.41,6.11,6.11,0,0,1,1.8.94v3.26a10.61,10.61,0,0,0-1.7-.9,5.21,5.21,0,0,0-2.08-.44,2.71,2.71,0,0,0-1.67.47,1.38,1.38,0,0,0-.61,1.1,1.28,1.28,0,0,0,.35.86,3,3,0,0,0,1.34.69l1.66.55q3.36,1,3.36,3.88a4,4,0,0,1-.78,2.43,5.24,5.24,0,0,1-2.07,1.68,6.59,6.59,0,0,1-2.87.61,9.05,9.05,0,0,1-2.88-.47,7.42,7.42,0,0,1-2.13-1V23.12a9.61,9.61,0,0,0,1.34.73,11.22,11.22,0,0,0,1.63.57,6.51,6.51,0,0,0,1.55.21,3.1,3.1,0,0,0,1.7-.39,1.26,1.26,0,0,0,.6-1.12,1,1,0,0,0-.5-.88,7.11,7.11,0,0,0-1.45-.64L105.24,21a4.1,4.1,0,0,1-2.33-1.57,4.44,4.44,0,0,1-.64-2.42,4.17,4.17,0,0,1,.71-2.44,4.86,4.86,0,0,1,2-1.63A6.83,6.83,0,0,1,107.92,12.3Z"/><path class="cls-1" d="M121.26,12.3a6,6,0,0,1,2.69.53,9.32,9.32,0,0,1,1.66,1v3.41a7.79,7.79,0,0,0-1.71-.93,6.07,6.07,0,0,0-2.31-.38,4,4,0,0,0-2.06.55A4.2,4.2,0,0,0,118,18a4.07,4.07,0,0,0-.55,2.13,4,4,0,0,0,4.11,4.13,6.52,6.52,0,0,0,2.31-.36,7.37,7.37,0,0,0,1.71-.92v3.38a7.11,7.11,0,0,1-1.66,1,6.51,6.51,0,0,1-2.69.48,7.41,7.41,0,0,1-4-1.06A7.75,7.75,0,0,1,114.55,24a7.61,7.61,0,0,1-1-3.83,7.75,7.75,0,0,1,.57-2.95,7.87,7.87,0,0,1,1.62-2.49A7.77,7.77,0,0,1,118.19,13,7.32,7.32,0,0,1,121.26,12.3Z"/><path class="cls-1" d="M133.85,12.3a7.14,7.14,0,0,1,3.72.94A6.14,6.14,0,0,1,140,15.82a8.34,8.34,0,0,1,.83,3.8v1.57H130.12a3.85,3.85,0,0,0,1.46,2.39,4.49,4.49,0,0,0,2.86.91,6.64,6.64,0,0,0,2.91-.64,10.79,10.79,0,0,0,2.1-1.31l0,3.44a8.74,8.74,0,0,1-2.08,1.23,7.3,7.3,0,0,1-3.05.63,8.1,8.1,0,0,1-4-1,7.67,7.67,0,0,1-2.86-2.71,7.33,7.33,0,0,1-1.06-3.94,8.14,8.14,0,0,1,1-3.93A7.78,7.78,0,0,1,130,13.4,6.94,6.94,0,0,1,133.85,12.3Zm-.09,3.24a3.27,3.27,0,0,0-2.3.85,4.35,4.35,0,0,0-1.28,2.27h7a3,3,0,0,0-1.16-2.35A3.84,3.84,0,0,0,133.76,15.54Z"/><path class="cls-1" d="M152,16.82a3.94,3.94,0,0,0-2-.52,2.87,2.87,0,0,0-2.12.83,8.08,8.08,0,0,0-1.49,2.05V27.4h-3.7V12.68h3.7v2.77a8.07,8.07,0,0,1,1.79-2.18,3.51,3.51,0,0,1,2.35-.88,3.68,3.68,0,0,1,1.43.27Z"/><path class="cls-1" d="M159.75,12.3a7.14,7.14,0,0,1,3.72.94,6.14,6.14,0,0,1,2.39,2.58,8.34,8.34,0,0,1,.83,3.8v1.57H156a3.85,3.85,0,0,0,1.46,2.39,4.49,4.49,0,0,0,2.86.91,6.61,6.61,0,0,0,2.91-.64,10.21,10.21,0,0,0,2.1-1.31l0,3.44a8.74,8.74,0,0,1-2.08,1.23,7.3,7.3,0,0,1-3.05.63,8.1,8.1,0,0,1-4-1,7.57,7.57,0,0,1-2.85-2.71,7.34,7.34,0,0,1-1.07-3.94,8.14,8.14,0,0,1,1-3.93,7.72,7.72,0,0,1,2.66-2.87A6.9,6.9,0,0,1,159.75,12.3Zm-.08,3.24a3.3,3.3,0,0,0-2.31.85,4.35,4.35,0,0,0-1.28,2.27h7A3,3,0,0,0,162,16.31,3.83,3.83,0,0,0,159.67,15.54Z"/><path class="cls-1" d="M182,6.42v21h-2.39V24.93a7.41,7.41,0,0,1-2.06,2,5.17,5.17,0,0,1-2.95.87,6.37,6.37,0,0,1-3.41-.95,6.84,6.84,0,0,1-2.47-2.64,8,8,0,0,1-.92-3.9,8.91,8.91,0,0,1,.92-4.17,6.56,6.56,0,0,1,2.52-2.69,6.86,6.86,0,0,1,3.59-1,6.08,6.08,0,0,1,2.55.6,6.59,6.59,0,0,1,2.23,1.64V6.42Zm-6.73,8.51a4.63,4.63,0,0,0-2.69.77,5.24,5.24,0,0,0-1.7,2,5.92,5.92,0,0,0-.6,2.65,5.75,5.75,0,0,0,.59,2.58,4.61,4.61,0,0,0,1.64,1.88,4.35,4.35,0,0,0,2.46.7,4.2,4.2,0,0,0,2.4-.7A4.94,4.94,0,0,0,179,22.87a6,6,0,0,0,.58-2.78l0-2.8a7.15,7.15,0,0,0-1.94-1.75A4.55,4.55,0,0,0,175.23,14.93Z"/><path class="cls-1" d="M189.24,12.83V27.4h-2.39V15.07h-2.3V12.83Zm-1.49-7a1.87,1.87,0,0,1,1.42.6,2,2,0,0,1,.57,1.39,2,2,0,0,1-.57,1.37,1.95,1.95,0,0,1-2.83,0,2,2,0,0,1-.57-1.37,2,2,0,0,1,.57-1.39A1.87,1.87,0,0,1,187.75,5.83Z"/><path class="cls-1" d="M198.91,12.54a6,6,0,0,1,2.55.6,6.49,6.49,0,0,1,2.23,1.64V12.83h2.39V27.11A8.18,8.18,0,0,1,205,31.43,6.61,6.61,0,0,1,202.24,34a8.59,8.59,0,0,1-3.82.85,7.29,7.29,0,0,1-2.29-.31,6.41,6.41,0,0,1-1.62-.76c-.45-.3-.85-.59-1.22-.86V30.35l1.15.83a8.61,8.61,0,0,0,1.72.92,6,6,0,0,0,2.26.4A6.45,6.45,0,0,0,201,32,4.45,4.45,0,0,0,203,30.43a4.05,4.05,0,0,0,.73-2.44V24.93a7.37,7.37,0,0,1-2.05,2,5.2,5.2,0,0,1-3,.87,6.4,6.4,0,0,1-3.41-.95,6.82,6.82,0,0,1-2.46-2.64,7.92,7.92,0,0,1-.92-3.9,8.79,8.79,0,0,1,.92-4.17,6.56,6.56,0,0,1,2.52-2.69A6.82,6.82,0,0,1,198.91,12.54Zm.44,2.36a4.6,4.6,0,0,0-2.68.77,5.21,5.21,0,0,0-1.71,2,6.06,6.06,0,0,0-.59,2.67,5.6,5.6,0,0,0,.58,2.56,4.72,4.72,0,0,0,1.64,1.87,4.38,4.38,0,0,0,2.47.7,4.19,4.19,0,0,0,2.39-.7,4.94,4.94,0,0,0,1.66-1.92,5.84,5.84,0,0,0,.58-2.77l0-2.8a7.2,7.2,0,0,0-1.94-1.76A4.44,4.44,0,0,0,199.35,14.9Z"/><path class="cls-1" d="M213.36,12.83V27.4H211V15.07h-2.3V12.83Zm-1.48-7a1.87,1.87,0,0,1,1.41.6,2,2,0,0,1,.57,1.39,2,2,0,0,1-.57,1.37,1.95,1.95,0,0,1-2.83,0,2,2,0,0,1-.56-1.37,1.94,1.94,0,0,1,.56-1.39A1.87,1.87,0,0,1,211.88,5.83Z"/><path class="cls-1" d="M221.05,8.63v4.2h4.26v2.24h-4.26v8.54a2.07,2.07,0,0,0,.47,1.43,1.82,1.82,0,0,0,1.43.53,4.36,4.36,0,0,0,1.46-.22,8.12,8.12,0,0,0,1-.48v1.95a5.09,5.09,0,0,1-1.24.74,4.55,4.55,0,0,1-1.77.28,3.46,3.46,0,0,1-2.81-1.12,4.49,4.49,0,0,1-1-3V15.07h-2.79v-.7a5.59,5.59,0,0,0,2.39-2.11A16.18,16.18,0,0,0,220,8.63Z"/><path class="cls-1" d="M234.17,12.54a6.08,6.08,0,0,1,2.55.6A6.69,6.69,0,0,1,239,14.78V12.83h2.39V27.4H239V24.93a7.55,7.55,0,0,1-2.06,2,5.18,5.18,0,0,1-3,.87,6.42,6.42,0,0,1-3.41-.95,6.82,6.82,0,0,1-2.46-2.64,8,8,0,0,1-.92-3.9,8.91,8.91,0,0,1,.92-4.17,6.56,6.56,0,0,1,2.52-2.69A6.84,6.84,0,0,1,234.17,12.54Zm.43,2.33a4.47,4.47,0,0,0-2.68.79,5.24,5.24,0,0,0-1.71,2,6.2,6.2,0,0,0-.59,2.67,5.74,5.74,0,0,0,.58,2.58,4.7,4.7,0,0,0,1.65,1.88,4.35,4.35,0,0,0,2.46.7,4.19,4.19,0,0,0,2.39-.7,4.86,4.86,0,0,0,1.66-1.94,6,6,0,0,0,.59-2.78l0-2.8A7.81,7.81,0,0,0,237,15.51,4.39,4.39,0,0,0,234.6,14.87Z"/><path class="cls-1" d="M247.19,6.42v21H244.8v-21Z"/><path class="cls-1" d="M256.66,12.54a6.92,6.92,0,0,1,3.73.93A5.85,5.85,0,0,1,262.62,16a8.53,8.53,0,0,1,.74,3.61v1.43H252.17a5.39,5.39,0,0,0,.84,2.24,5,5,0,0,0,1.75,1.62,5,5,0,0,0,2.48.6,5.75,5.75,0,0,0,2.94-.8,11.06,11.06,0,0,0,2.31-1.77l0,2.6a6,6,0,0,1-1.21,1,8.53,8.53,0,0,1-1.84.91,6.54,6.54,0,0,1-2.17.36,7.42,7.42,0,0,1-3.94-1.05,7.63,7.63,0,0,1-3.67-6.59,8.06,8.06,0,0,1,.91-3.81,7.26,7.26,0,0,1,2.49-2.8A6.44,6.44,0,0,1,256.66,12.54Zm0,2.33a4,4,0,0,0-3,1.21A5.44,5.44,0,0,0,252.23,19H261a4.81,4.81,0,0,0-.8-2.33,4.2,4.2,0,0,0-1.59-1.36A4.42,4.42,0,0,0,256.66,14.87Z"/><path class="cls-2" d="M30.84.75V3.5a.75.75,0,0,1-.76.76h-.84c-2.52,0-2.66.13-2.66,2.33V9.51a1.31,1.31,0,0,1-1.3,1.31H15.75a9.2,9.2,0,0,0-9.17,9.82,9.42,9.42,0,0,0,9.5,8.56H18a1.31,1.31,0,0,1,1.31,1.31v3.93A1.32,1.32,0,0,1,18,35.76H16.17c-8.81,0-16.31-7.22-16.17-16A15.78,15.78,0,0,1,15.75,4.26h8.17c2.53,0,2.66-.14,2.66-2.33V.75A.76.76,0,0,1,27.34,0h2.74A.76.76,0,0,1,30.84.75Z"/><path class="cls-2" d="M50.85,20.27A15.77,15.77,0,0,1,35.1,35.76H26.94c-2.53,0-2.67.13-2.67,2.32v1.18a.75.75,0,0,1-.75.75H20.77a.76.76,0,0,1-.75-.75V36.51a.75.75,0,0,1,.75-.75h.84c2.52,0,2.66-.14,2.66-2.33V30.5a1.31,1.31,0,0,1,1.32-1.3H35.1a9.21,9.21,0,0,0,9.18-9.82,9.4,9.4,0,0,0-9.49-8.56H32.86A1.33,1.33,0,0,1,31.53,9.5V5.57a1.32,1.32,0,0,1,1.33-1.31h1.83C43.5,4.26,51,11.47,50.85,20.27Z"/></svg>